<svg id="Layer_1" data-name="Layer 1" xmlns="http://www.w3.org/2000/svg" viewBox="0 0 22 22"><defs><style>.cls-1{fill:none;stroke:#474747;stroke-linejoin:round;stroke-width:1.51px;}</style></defs><path class="cls-1" d="M12.68,12h0a1.33,1.33,0,0,1,.4-1,5.54,5.54,0,0,0,1.53-4c0-2.71-1.61-4.9-3.61-4.9S7.39,4.36,7.39,7.07a5.54,5.54,0,0,0,1.53,4,1.33,1.33,0,0,1,.4,1h0a1.37,1.37,0,0,1-1.07,1.32C5.26,14,2.91,15.8,2.07,18a1.34,1.34,0,0,0,1.27,1.81H18.66A1.34,1.34,0,0,0,19.93,18c-.84-2.22-3.19-4-6.18-4.66A1.37,1.37,0,0,1,12.68,12Z"/></svg>